# xmcd
#
# Track frame offsets:
#	150
#	12702
#	43045
#	55866
#	67939
#	81382
#	95277
#	108652
#	121472
#	135155
#	145423
#	156990
#	180738
#	193623
#	205213
#	216133
#	228411
#	239679
#
# Disc length: 3422 seconds
#
# Revision: 0
# Processed by: cddbd v1.5.2PL0 Copyright (c) Steve Scherf et al.
# Submitted via: audiograbber 1.83.01
#
DISCID=090d5c12
DTITLE=Various Artist - Blues ballads
DYEAR=1996
DGENRE=Blues
TTITLE0=Muddy Waters - Mean mistreater
TTITLE1=Brownie McGhee and Sonny Terry - Everybody's blues
TTITLE2=Sonny Boy Williamson - All my love in vain
TTITLE3=Lightnin' Hopkins - Evil hearted woman
TTITLE4=Howlin' Wolf - My last affair
TTITLE5=Elmore James - It hurts me too
TTITLE6=Sonny Boy Williamson - Sad to be alone
TTITLE7=Johnny Winter - Leavin' blues
TTITLE8=Muddy Waters - Sad letter
TTITLE9=Little Walter - Hate to see you go
TTITLE10=Sonny Boy Williamson - Stop crying (All your throwing away is mine)
TTITLE11=B.B. King - You've done lost you're good thing now
TTITLE12=Muddy Waters - 40 days and 40 nights
TTITLE13=Lightning Slim - Lightning's bad luck
TTITLE14=Little Walter - Blue midnight
TTITLE15=Howlin' Wolf - Louise
TTITLE16=Big Joe Williams - Bye, bye baby blues
TTITLE17=Mississippi John Hurt - Lonesome blues
EXTD=
EXTT0=
EXTT1=
EXTT2=
EXTT3=
EXTT4=
EXTT5=
EXTT6=
EXTT7=
EXTT8=
EXTT9=
EXTT10=
EXTT11=
EXTT12=
EXTT13=
EXTT14=
EXTT15=
EXTT16=
EXTT17=
PLAYORDER=
